REM DIRINDEX 1\5,1\2\6,1\2\7,1\3\8,1\3\9,1\4\10,1\4\11,1\4\12
REM DIRNAME folder01,folder02,folder03,folder04,folder05,folder06,folder07,folder08,folder09,folder10,folder11,folder12
TITLE ""
FILE "EJE_DB3000_5th_6C_50.mp3" MP3
  TRACK 01 AUDIO
    TITLE "0:"
    INDEX 01 00:00:00
  TRACK 02 AUDIO
    TITLE "10:cjc026_12093"
    INDEX 01 00:00:05
  TRACK 03 AUDIO
    TITLE "0:"
    INDEX 01 00:00:72
  TRACK 04 AUDIO
    TITLE "11:cjc026_12094"
    INDEX 01 00:01:24
  TRACK 05 AUDIO
    TITLE "0:"
    INDEX 01 00:02:20
  TRACK 06 AUDIO
    TITLE "12:cjc026_12095"
    INDEX 01 00:02:45
  TRACK 07 AUDIO
    TITLE "0:"
    INDEX 01 00:03:37
  TRACK 08 AUDIO
    TITLE "10:cjc026_12096"
    INDEX 01 00:03:64
  TRACK 09 AUDIO
    TITLE "0:"
    INDEX 01 00:04:58
  TRACK 10 AUDIO
    TITLE "11:cjc026_12097"
    INDEX 01 00:05:10
  TRACK 11 AUDIO
    TITLE "0:"
    INDEX 01 00:06:16
  TRACK 12 AUDIO
    TITLE "12:cjc026_12098"
    INDEX 01 00:06:41
  TRACK 13 AUDIO
    TITLE "0:"
    INDEX 01 00:07:37
  TRACK 14 AUDIO
    TITLE "10:cjc026_12099"
    INDEX 01 00:07:60
  TRACK 15 AUDIO
    TITLE "0:"
    INDEX 01 00:08:68
  TRACK 16 AUDIO
    TITLE "11:cjc026_12100"
    INDEX 01 00:09:18
  TRACK 17 AUDIO
    TITLE "0:"
    INDEX 01 00:10:23
  TRACK 18 AUDIO
    TITLE "12:cjc026_12101"
    INDEX 01 00:10:51
  TRACK 19 AUDIO
    TITLE "0:"
    INDEX 01 00:11:56
  TRACK 20 AUDIO
    TITLE "10:cjc026_12102"
    INDEX 01 00:12:07
  TRACK 21 AUDIO
    TITLE "0:"
    INDEX 01 00:13:26
  TRACK 22 AUDIO
    TITLE "11:cjc026_12103"
    INDEX 01 00:13:53
  TRACK 23 AUDIO
    TITLE "0:"
    INDEX 01 00:14:72
  TRACK 24 AUDIO
    TITLE "12:cjc026_12104"
    INDEX 01 00:15:23
  TRACK 25 AUDIO
    TITLE "0:"
    INDEX 01 00:16:42
  TRACK 26 AUDIO
    TITLE "10:cjc026_12105"
    INDEX 01 00:16:67
  TRACK 27 AUDIO
    TITLE "0:"
    INDEX 01 00:17:70
  TRACK 28 AUDIO
    TITLE "11:cjc026_12106"
    INDEX 01 00:18:21
  TRACK 29 AUDIO
    TITLE "0:"
    INDEX 01 00:19:62
  TRACK 30 AUDIO
    TITLE "12:cjc026_12107"
    INDEX 01 00:20:12
  TRACK 31 AUDIO
    TITLE "0:"
    INDEX 01 00:21:15
  TRACK 32 AUDIO
    TITLE "10:cjc026_12108"
    INDEX 01 00:21:41
  TRACK 33 AUDIO
    TITLE "0:"
    INDEX 01 00:22:36
  TRACK 34 AUDIO
    TITLE "11:cjc026_12109"
    INDEX 01 00:22:62
  TRACK 35 AUDIO
    TITLE "0:"
    INDEX 01 00:23:73
  TRACK 36 AUDIO
    TITLE "12:cjc026_12110"
    INDEX 01 00:24:24
  TRACK 37 AUDIO
    TITLE "0:"
    INDEX 01 00:25:19
  TRACK 38 AUDIO
    TITLE "10:cjc026_12111"
    INDEX 01 00:25:45
  TRACK 39 AUDIO
    TITLE "0:"
    INDEX 01 00:26:48
  TRACK 40 AUDIO
    TITLE "11:cjc026_12112"
    INDEX 01 00:27:00
  TRACK 41 AUDIO
    TITLE "0:"
    INDEX 01 00:28:39
  TRACK 42 AUDIO
    TITLE "12:cjc026_12113"
    INDEX 01 00:28:66
  TRACK 43 AUDIO
    TITLE "0:"
    INDEX 01 00:29:70
  TRACK 44 AUDIO
    TITLE "10:cjc026_12114"
    INDEX 01 00:30:20
  TRACK 45 AUDIO
    TITLE "0:"
    INDEX 01 00:31:39
  TRACK 46 AUDIO
    TITLE "11:cjc026_12115"
    INDEX 01 00:31:65
  TRACK 47 AUDIO
    TITLE "0:"
    INDEX 01 00:33:24
  TRACK 48 AUDIO
    TITLE "12:cjc026_12116"
    INDEX 01 00:33:50
  TRACK 49 AUDIO
    TITLE "0:"
    INDEX 01 00:34:67
  TRACK 50 AUDIO
    TITLE "10:cjc026_12117"
    INDEX 01 00:35:15
  TRACK 51 AUDIO
    TITLE "0:"
    INDEX 01 00:36:40
  TRACK 52 AUDIO
    TITLE "11:cjc026_12118"
    INDEX 01 00:36:68
  TRACK 53 AUDIO
    TITLE "0:"
    INDEX 01 00:39:09
  TRACK 54 AUDIO
    TITLE "12:cjc026_12119"
    INDEX 01 00:39:37
  TRACK 55 AUDIO
    TITLE "0:"
    INDEX 01 00:40:58
  TRACK 56 AUDIO
    TITLE "10:cjc026_12120"
    INDEX 01 00:41:10
  TRACK 57 AUDIO
    TITLE "0:"
    INDEX 01 00:42:18
  TRACK 58 AUDIO
    TITLE "11:cjc026_12121"
    INDEX 01 00:42:43
  TRACK 59 AUDIO
    TITLE "0:"
    INDEX 01 00:44:60
  TRACK 60 AUDIO
    TITLE "12:cjc026_12122"
    INDEX 01 00:45:08
  TRACK 61 AUDIO
    TITLE "0:"
    INDEX 01 00:46:15
  TRACK 62 AUDIO
    TITLE "10:cjc026_12123"
    INDEX 01 00:46:41
  TRACK 63 AUDIO
    TITLE "0:"
    INDEX 01 00:47:56
  TRACK 64 AUDIO
    TITLE "11:cjc026_12124"
    INDEX 01 00:48:06
  TRACK 65 AUDIO
    TITLE "0:"
    INDEX 01 00:49:21
  TRACK 66 AUDIO
    TITLE "12:cjc026_12125"
    INDEX 01 00:49:47
  TRACK 67 AUDIO
    TITLE "0:"
    INDEX 01 00:50:60
  TRACK 68 AUDIO
    TITLE "10:cjc026_12126"
    INDEX 01 00:51:13
  TRACK 69 AUDIO
    TITLE "0:"
    INDEX 01 00:52:16
  TRACK 70 AUDIO
    TITLE "11:cjc026_12127"
    INDEX 01 00:52:43
  TRACK 71 AUDIO
    TITLE "0:"
    INDEX 01 00:53:29
  TRACK 72 AUDIO
    TITLE "12:cjc026_12128"
    INDEX 01 00:53:57
  TRACK 73 AUDIO
    TITLE "0:"
    INDEX 01 00:54:60
  TRACK 74 AUDIO
    TITLE "10:cjc026_12129"
    INDEX 01 00:55:10
  TRACK 75 AUDIO
    TITLE "0:"
    INDEX 01 00:56:22
  TRACK 76 AUDIO
    TITLE "11:cjc026_12130"
    INDEX 01 00:56:49
  TRACK 77 AUDIO
    TITLE "0:"
    INDEX 01 00:57:66
  TRACK 78 AUDIO
    TITLE "12:cjc026_12131"
    INDEX 01 00:58:17
  TRACK 79 AUDIO
    TITLE "0:"
    INDEX 01 00:59:28
  TRACK 80 AUDIO
    TITLE "10:cjc026_12132"
    INDEX 01 00:59:53
  TRACK 81 AUDIO
    TITLE "0:"
    INDEX 01 01:01:38
  TRACK 82 AUDIO
    TITLE "11:cjc026_12133"
    INDEX 01 01:01:64
  TRACK 83 AUDIO
    TITLE "0:"
    INDEX 01 01:04:00
  TRACK 84 AUDIO
    TITLE "12:cjc026_12134"
    INDEX 01 01:04:23
  TRACK 85 AUDIO
    TITLE "0:"
    INDEX 01 01:06:06
  TRACK 86 AUDIO
    TITLE "10:cjc026_12135"
    INDEX 01 01:06:34
  TRACK 87 AUDIO
    TITLE "0:"
    INDEX 01 01:08:13
  TRACK 88 AUDIO
    TITLE "11:cjc026_12136"
    INDEX 01 01:08:38
  TRACK 89 AUDIO
    TITLE "0:"
    INDEX 01 01:10:08
  TRACK 90 AUDIO
    TITLE "12:cjc026_12137"
    INDEX 01 01:10:35
  TRACK 91 AUDIO
    TITLE "0:"
    INDEX 01 01:12:15
  TRACK 92 AUDIO
    TITLE "10:cjc026_12138"
    INDEX 01 01:12:40
  TRACK 93 AUDIO
    TITLE "0:"
    INDEX 01 01:14:25
  TRACK 94 AUDIO
    TITLE "11:cjc026_12139"
    INDEX 01 01:14:49
  TRACK 95 AUDIO
    TITLE "0:"
    INDEX 01 01:16:34
  TRACK 96 AUDIO
    TITLE "12:cjc026_12140"
    INDEX 01 01:16:60
  TRACK 97 AUDIO
    TITLE "0:"
    INDEX 01 01:18:45
